<?xml version="1.0" encoding="UTF-8"?>
<svg width="30px" height="30px" viewBox="0 0 30 30" version="1.1" xmlns="http://www.w3.org/2000/svg" xmlns:xlink="http://www.w3.org/1999/xlink">
    <title>Icon / Profile@1.5x</title>
    <defs>
        <path d="M10.6247468,13.28125 C15.8484902,13.28125 20.3623976,16.133427 21.2183359,20.6296262 C21.4087156,21.6300172 20.7238577,22.578125 19.6146658,22.578125 L19.6146658,22.578125 L1.63482785,22.578125 C0.525964388,22.578125 -0.158683753,21.6298733 0.0316615919,20.6296629 C0.887071673,16.1334884 5.40091508,13.28125 10.6247468,13.28125 Z M10.6247468,14.8307292 C6.12875425,14.8307292 2.34039694,17.2245424 1.64023333,20.9047162 C1.63593753,20.9272894 1.63282041,20.9457905 1.63064701,20.9609455 L1.63064701,20.9609455 L1.62705168,21.017528 C1.62837503,21.0268757 1.63159364,21.0286458 1.63482785,21.0286458 L1.63482785,21.0286458 L19.6146658,21.0286458 C19.6181101,21.0286458 19.6214531,21.0268788 19.6228503,21.0175366 L19.6228503,21.0175366 L19.6193605,20.960976 L19.5545173,20.6440905 C18.7283727,17.1119015 15.01365,14.8307292 10.6247468,14.8307292 Z M10.6249758,0 C13.8094506,0 16.1589084,2.67414267 15.9209063,6.03969307 C15.6923441,9.26870223 13.3331163,11.953125 10.6249758,11.953125 C7.91541825,11.953125 5.55337565,9.26716062 5.32896109,6.03849309 C5.09272504,2.63605351 7.42562336,0 10.6249758,0 Z M10.6249758,1.70758929 C8.37370662,1.70758929 6.78723454,3.50022005 6.95486581,5.91456493 C7.12084306,8.30249088 8.82956069,10.2455357 10.6249758,10.2455357 C12.4190235,10.2455357 14.1260031,8.30326677 14.295161,5.91349125 C14.463394,3.53453445 12.85827,1.70758929 10.6249758,1.70758929 Z" id="path-1"></path>
    </defs>
    <g id="Symbols" stroke="none" stroke-width="1" fill="none" fill-rule="evenodd">
        <g id="Profile" transform="translate(4.375000, 3.750000)">
            <mask id="mask-2" fill="white">
                <use xlink:href="#path-1"></use>
            </mask>
            <use id="Mask" fill="#011627" fill-rule="nonzero" xlink:href="#path-1"></use>
            <g id="Group" mask="url(#mask-2)">
                <g transform="translate(-5.312500, -5.312500)" id="Color-/-Medium-Grey">
                    <rect id="Rectangle" fill="#637F8E" x="0" y="0" width="31.875" height="31.875"></rect>
                </g>
            </g>
        </g>
    </g>
</svg>
