<?xml version="1.0" encoding="UTF-8"?>
<svg width="471px" height="355px" viewBox="0 0 471 355" version="1.1" xmlns="http://www.w3.org/2000/svg" xmlns:xlink="http://www.w3.org/1999/xlink">
    <title>Empty State Illustrations / Rig Platform@1x</title>
    <defs>
        <linearGradient x1="27.6275099%" y1="25.5260482%" x2="71.542755%" y2="73.095386%" id="linearGradient-1">
            <stop stop-color="#E9F3FB" offset="0%"></stop>
            <stop stop-color="#BCDDF5" offset="100%"></stop>
        </linearGradient>
    </defs>
    <g id="Symbols" stroke="none" stroke-width="1" fill="none" fill-rule="evenodd">
        <g id="Illustration">
            <path d="M257.023204,5.57019835 C296.039691,7.14043444 335.759599,3.85990821 370.027813,22.5796687 C407.420281,43.0059168 439.344748,74.1692965 455.083133,113.763789 C471.44192,154.919446 477.947633,203.917981 457.780442,243.348071 C438.453798,281.13561 391.037774,290.891585 353.941054,311.513887 C322.221905,329.146837 293.308285,354.350637 257.023204,354.95251 C220.429774,355.559571 191.96237,327.739255 157.740112,314.769338 C106.107271,295.201055 28.7542199,309.96399 5.80272198,259.74392 C-16.3388121,211.296854 42.0261853,163.408671 67.0815924,116.401801 C87.1349313,78.7802955 100.388737,34.6956229 137.210463,13.2098709 C172.642397,-7.46476103 216.033581,3.92056247 257.023204,5.57019835 Z" id="Path" fill="url(#linearGradient-1)"></path>
            <g id="Group" transform="translate(270.503086, 31.695771)" fill-rule="nonzero">
                <rect id="Rectangle" fill="#334358" x="4.34468571" y="11.9281371" width="9.53197714" height="102.982217"></rect>
                <rect id="Rectangle" fill="#CE0E2D" x="3.05444571" y="20.45952" width="12.1124571" height="2.55414857"></rect>
                <rect id="Rectangle" fill="#CE0E2D" x="0.131657143" y="9.40032" width="17.9317029" height="2.55414857"></rect>
                <rect id="Rectangle" fill="#CE0E2D" x="3.05444571" y="33.36192" width="12.1124571" height="2.55414857"></rect>
                <rect id="Rectangle" fill="#88192B" x="3.05444571" y="46.26432" width="12.1124571" height="2.55414857"></rect>
                <rect id="Rectangle" fill="#B85851" x="3.05444571" y="59.1403886" width="12.1124571" height="2.55414857"></rect>
                <rect id="Rectangle" fill="#B85851" x="3.05444571" y="72.0427886" width="12.1124571" height="2.55414857"></rect>
                <rect id="Rectangle" fill="#E66D64" x="3.05444571" y="97.8475886" width="12.1124571" height="2.55414857"></rect>
                <path d="M2.02752,9.40032 L2.02752,0.684617143 C2.02752,0.342308571 1.73787429,0.0526628571 1.39556571,0.0526628571 C1.05325714,0.0526628571 0.763611429,0.342308571 0.763611429,0.684617143 L0.763611429,9.40032 L2.02752,9.40032 Z" id="Path" fill="#334358"></path>
                <path d="M17.4577371,9.40032 L17.4577371,0.684617143 C17.4577371,0.342308571 17.1680914,0.0526628571 16.8257829,0.0526628571 C16.4834743,0.0526628571 16.1938286,0.342308571 16.1938286,0.684617143 L16.1938286,9.40032 L17.4577371,9.40032 Z" id="Path" fill="#334358"></path>
                <rect id="Rectangle" fill="#334358" x="1.39556571" y="6.34587429" width="15.4302171" height="1"></rect>
                <rect id="Rectangle" fill="#334358" x="1.39556571" y="3.58107429" width="15.4302171" height="1"></rect>
            </g>
            <g id="Group" transform="translate(89.606171, 125.962286)" fill-rule="nonzero">
                <g transform="translate(13.692343, 0.000000)" fill="#FFFFFF" id="Path">
                    <polygon points="7.66244571 52.5575314 0.0526628571 70.7262171 3.71273143 70.7262171 5.84557714 70.7262171 8.68937143 66.3815314 10.8222171 70.3049143 15.0879086 70.3049143 8.76836571 55.1906743"></polygon>
                    <polygon points="35.8370743 36.4426971 27.4900114 56.4545829 30.4917943 56.4545829 30.9394286 57.50784 33.54624 63.5114057 35.0997943 57.87648 38.9178514 57.87648 42.7885714 53.0578286 36.9429943 39.07584"></polygon>
                    <polygon points="77.59872 0.0263314286 63.0111086 34.83648 68.6986971 34.83648 68.6986971 34.83648 73.5173486 27.648 81.5747657 48.6868114 86.07744 34.5468343 92.0283429 34.5468343 78.9416229 3.23876571"></polygon>
                    <polygon points="174.893349 20.9071543 160.305737 55.7173029 165.993326 55.7173029 165.993326 55.7173029 170.811977 48.5288229 178.869394 69.5676343 183.372069 55.4276571 189.322971 55.4276571 176.236251 24.1195886"></polygon>
                    <polygon points="118.623086 52.5575314 112.830171 66.3815314 115.963611 66.8554971 116.937874 66.9871543 118.728411 72.5430857 120.650606 68.6197029 124.652983 66.9608229 119.755337 55.2433371"></polygon>
                    <polygon points="145.138834 68.1984 140.241189 79.9158857 142.058057 80.7058286 142.347703 80.4425143 144.006583 78.9152914 146.692389 84.5765486 147.719314 81.7590857 150.431451 80.8374857 145.79712 69.7782857"></polygon>
                    <polygon points="215.312091 60.6149486 211.520366 69.67296 213.653211 70.1732571 213.837531 70.3839086 215.312091 72.1744457 216.549669 69.8309486 218.866834 69.0936686 216.260023 62.8794514"></polygon>
                    <polygon points="246.567497 33.8885486 237.430491 55.7436343 241.82784 55.7436343 241.959497 56.0596114 244.77696 62.6161371 247.963063 52.2415543 250.438217 57.4288457 256.415451 57.4288457 248.042057 37.3642971"></polygon>
                    <polygon points="284.195109 75.5975314 283.563154 74.0703086 279.481783 83.8392686 281.535634 83.8392686 281.956937 83.8392686 283.405166 82.3383771 285.827657 85.7614629 288.197486 85.1821714"></polygon>
                </g>
                <polygon id="Path" fill="#8DAFC7" points="301.889829 85.1821714 299.52 85.7614629 297.097509 82.3383771 295.64928 83.8392686 293.174126 83.8392686 287.17056 98.1898971 270.107794 57.4288457 264.13056 57.4288457 261.655406 52.2415543 258.469303 62.6161371 255.65184 56.0596114 255.520183 55.7436343 251.122834 55.7436343 239.036709 84.60288 232.559177 69.0936686 230.242011 69.8309486 229.004434 72.1744457 227.529874 70.3839086 227.345554 70.1732571 225.212709 69.67296 217.102629 89.0792229 203.015314 55.4276571 197.064411 55.4276571 192.561737 69.5676343 184.50432 48.5288229 179.685669 55.7173029 173.99808 55.7173029 163.412846 81.0744686 161.411657 81.7590857 160.384731 84.5765486 157.698926 78.9152914 156.040046 80.4425143 155.7504 80.7058286 153.933531 79.9158857 148.851566 92.0810057 138.345326 66.9608229 134.342949 68.6197029 132.420754 72.5430857 130.630217 66.9871543 129.655954 66.8554971 126.522514 66.3815314 122.783451 75.3342171 105.720686 34.5468343 99.7697829 34.5468343 95.2671086 48.6868114 87.2096914 27.648 82.39104 34.83648 82.39104 34.83648 76.7034514 34.83648 62.7741257 68.1457371 56.4809143 53.0578286 52.6101943 57.87648 48.7921371 57.87648 47.2385829 63.5114057 44.6317714 57.50784 44.1841371 56.4545829 41.1823543 56.4545829 32.07168 78.1780114 28.7802514 70.3049143 24.51456 70.3049143 22.3817143 66.3815314 19.53792 70.7262171 13.7450057 70.7262171 0.157988571 103.271863 309.47328 103.271863"></polygon>
            </g>
            <path d="M435.6184,298.986103 C435.6184,305.489966 429.885821,310.782583 422.777423,310.782583 L63.4593768,310.782583 C56.3796418,310.782583 50.6184,305.516297 50.6184,298.986103 L50.6184,241.030629 C50.6184,234.526766 56.3509789,229.234149 63.4593768,229.234149 L422.777423,229.234149 C429.857158,229.234149 435.6184,234.500434 435.6184,241.030629 L435.6184,298.986103 Z" id="Path" fill="#4D7388" fill-rule="nonzero"></path>
            <path d="M190.797851,245.322651 C190.797851,248.298103 188.37536,250.720594 185.399909,250.720594 L140.188846,250.720594 C137.213394,250.720594 134.790903,248.298103 134.790903,245.322651 L134.790903,245.322651 C134.790903,242.3472 137.213394,239.924709 140.188846,239.924709 L185.373577,239.924709 C188.37536,239.924709 190.797851,242.3472 190.797851,245.322651 L190.797851,245.322651 Z" id="Path" fill="#354D5B" fill-rule="nonzero"></path>
            <path d="M351.524891,245.322651 C351.524891,248.298103 349.1024,250.720594 346.126949,250.720594 L300.942217,250.720594 C297.966766,250.720594 295.544274,248.298103 295.544274,245.322651 L295.544274,245.322651 C295.544274,242.3472 297.966766,239.924709 300.942217,239.924709 L346.126949,239.924709 C349.1024,239.924709 351.524891,242.3472 351.524891,245.322651 L351.524891,245.322651 Z" id="Path" fill="#354D5B" fill-rule="nonzero"></path>
            <path d="M175.867931,245.269989 L175.867931,171.778971 C175.867931,171.041691 175.262309,170.436069 174.525029,170.436069 L151.037394,170.436069 C151.037394,170.436069 151.011063,170.436069 151.011063,170.436069 C150.905737,170.436069 150.800411,170.4624 150.695086,170.488731 C150.642423,170.515063 150.563429,170.515063 150.484434,170.541394 C150.40544,170.567726 150.352777,170.620389 150.300114,170.673051 C150.22112,170.725714 150.142126,170.778377 150.063131,170.857371 C150.063131,170.857371 150.063131,170.857371 150.0368,170.883703 C149.984137,170.936366 149.984137,170.989029 149.931474,171.041691 C149.878811,171.120686 149.826149,171.19968 149.773486,171.305006 C149.747154,171.384 149.720823,171.489326 149.720823,171.594651 C149.720823,171.647314 149.694491,171.726309 149.694491,171.778971 L149.694491,245.269989 L175.867931,245.269989 L175.867931,245.269989 Z M173.182126,240.504 L154.09184,219.781166 L173.182126,219.781166 L173.182126,240.504 Z M173.182126,214.988846 L154.09184,194.266011 L173.182126,194.266011 L173.182126,214.988846 Z M173.182126,173.121874 L173.182126,189.921326 L154.539474,173.121874 L173.182126,173.121874 Z M152.380297,174.807086 L171.022949,191.606537 L152.380297,191.606537 L152.380297,174.807086 Z M152.380297,196.372526 L171.470583,217.09536 L152.380297,217.09536 L152.380297,196.372526 Z M152.380297,221.861349 L171.470583,242.584183 L152.380297,242.584183 L152.380297,221.861349 Z" id="Shape" fill="#FFED8F" fill-rule="nonzero"></path>
            <path d="M336.621303,245.269989 L336.621303,171.778971 C336.621303,171.041691 336.01568,170.436069 335.2784,170.436069 L311.790766,170.436069 C311.790766,170.436069 311.764434,170.436069 311.764434,170.436069 C311.659109,170.436069 311.553783,170.4624 311.448457,170.488731 C311.395794,170.515063 311.3168,170.515063 311.237806,170.541394 C311.158811,170.567726 311.106149,170.620389 311.053486,170.673051 C310.974491,170.725714 310.895497,170.778377 310.816503,170.857371 C310.816503,170.857371 310.816503,170.857371 310.790171,170.883703 C310.737509,170.936366 310.737509,170.989029 310.684846,171.041691 C310.632183,171.120686 310.57952,171.19968 310.526857,171.305006 C310.500526,171.384 310.474194,171.489326 310.474194,171.594651 C310.474194,171.647314 310.447863,171.726309 310.447863,171.778971 L310.447863,245.269989 L336.621303,245.269989 L336.621303,245.269989 Z M333.935497,240.504 L314.845211,219.781166 L333.935497,219.781166 L333.935497,240.504 Z M333.935497,214.988846 L314.845211,194.266011 L333.935497,194.266011 L333.935497,214.988846 Z M333.935497,173.121874 L333.935497,189.921326 L315.292846,173.121874 L333.935497,173.121874 Z M313.107337,174.807086 L331.749989,191.606537 L313.107337,191.606537 L313.107337,174.807086 Z M313.107337,196.372526 L332.197623,217.09536 L313.107337,217.09536 L313.107337,196.372526 Z M313.107337,221.861349 L332.197623,242.584183 L313.107337,242.584183 L313.107337,221.861349 Z" id="Shape" fill="#FFED8F" fill-rule="nonzero"></path>
            <path d="M311.369463,107.477623 L299.230674,107.477623 L299.230674,108.372891 L299.230674,108.372891 L299.230674,115.71936 L299.230674,115.71936 L299.230674,117.062263 L311.369463,117.062263 L311.369463,107.477623 Z M300.125943,116.166994 L300.125943,108.846857 L309.65792,116.193326 L300.125943,116.193326 L300.125943,116.166994 Z M300.99488,108.372891 L310.526857,108.372891 L310.526857,115.71936 L300.99488,108.372891 Z" id="Shape" fill="#305078" fill-rule="nonzero"></path>
            <path d="M381.490057,62.08224 L358.950354,65.6633143 C358.897691,65.6633143 358.87136,65.6896457 358.845029,65.6896457 C358.818697,65.6896457 358.818697,65.6896457 358.792366,65.7159771 C358.713371,65.7423086 358.660709,65.7949714 358.581714,65.8476343 C358.581714,65.8476343 358.581714,65.8476343 358.555383,65.8739657 L346.258606,78.1707429 L333.961829,90.46752 L321.665051,102.764297 C321.665051,102.764297 321.665051,102.764297 321.665051,102.764297 C321.63872,102.790629 321.63872,102.790629 321.63872,102.81696 C321.612389,102.843291 321.612389,102.869623 321.586057,102.895954 C321.559726,102.922286 321.559726,102.948617 321.533394,102.974949 C321.533394,102.974949 321.507063,103.00128 321.507063,103.027611 C321.507063,103.027611 321.507063,103.053943 321.507063,103.053943 C321.507063,103.080274 321.480731,103.080274 321.480731,103.106606 L318.531611,117.641554 C318.478949,117.852206 318.557943,118.089189 318.715931,118.247177 L322.402331,121.933577 C322.665646,122.196891 323.086949,122.196891 323.376594,121.933577 L332.118629,113.191543 L344.415406,100.894766 L356.712183,88.5979886 L369.00896,76.3012114 L382.069349,63.2408229 C382.28,63.0301714 382.332663,62.7141943 382.201006,62.45088 C382.069349,62.1875657 381.779703,62.0295771 381.490057,62.08224 Z M335.936686,91.4154514 L354.342354,89.0456229 L343.94144,99.4465371 L335.936686,91.4154514 Z M348.233463,79.1186743 L366.639131,76.7488457 L356.238217,87.14976 L348.233463,79.1186743 Z M367.060434,75.3006171 L348.654766,77.6704457 L359.05568,67.2695314 L367.060434,75.3006171 Z M354.763657,87.5973943 L336.357989,89.9672229 L346.758903,79.5663086 L354.763657,87.5973943 Z M342.46688,99.8941714 L324.061211,102.264 L334.462126,91.8630857 L342.46688,99.8941714 Z M319.97984,117.536229 L322.586651,104.607497 L330.6704,112.691246 L322.902629,120.459017 L319.97984,117.536229 Z M323.639909,103.712229 L342.045577,101.3424 L331.644663,111.743314 L323.639909,103.712229 Z M368.534994,74.8529829 L360.477577,66.7955657 L379.620526,63.7674514 L368.534994,74.8529829 Z" id="Shape" fill="#334358" fill-rule="nonzero"></path>
            <path d="M209.493166,84.8589257 C210.12512,84.8589257 210.625417,84.3586286 210.625417,83.7266743 C210.625417,83.09472 210.12512,82.5944229 209.493166,82.5944229 L207.018011,82.5944229 L204.200549,69.4813714 L206.096411,69.4813714 C206.728366,69.4813714 207.228663,68.9810743 207.228663,68.3227886 C207.228663,67.6908343 206.728366,67.1905371 206.096411,67.1905371 L203.726583,67.1905371 L201.09344,54.89376 L202.278354,54.89376 C202.910309,54.89376 203.410606,54.3671314 203.410606,53.7351771 C203.410606,53.1822171 203.015634,52.7609143 202.515337,52.6292571 L185.9792,52.6292571 C185.478903,52.7609143 185.083931,53.1822171 185.083931,53.7351771 C185.083931,54.3671314 185.584229,54.89376 186.242514,54.89376 L187.427429,54.89376 L184.794286,67.1905371 L182.424457,67.1905371 C181.792503,67.1905371 181.292206,67.6908343 181.292206,68.3227886 C181.292206,68.9547429 181.792503,69.4813714 182.424457,69.4813714 L184.32032,69.4813714 L181.502857,82.5944229 L177.974446,82.5944229 C177.342491,82.5944229 176.815863,83.09472 176.815863,83.7266743 C176.815863,84.3586286 177.342491,84.8589257 177.974446,84.8589257 L180.976229,84.8589257 L175.736274,109.320823 L178.97504,109.320823 L193.088686,96.7870629 L193.088686,109.320823 L195.37952,109.320823 L195.37952,96.7870629 L209.493166,109.320823 L212.731931,109.320823 L207.491977,84.8589257 L209.493166,84.8589257 Z M186.426834,70.2976457 L192.325074,74.7739886 L184.162331,80.9355429 L186.426834,70.2976457 Z M178.659063,106.529691 L183.082743,85.8858514 L192.509394,94.2592457 L178.659063,106.529691 Z M193.088686,91.6787657 L185.399909,84.8589257 L193.088686,84.8589257 L193.088686,91.6787657 Z M193.088686,82.5680914 L185.79488,82.5680914 L193.088686,77.0648229 L193.088686,82.5680914 Z M193.088686,72.4568229 L189.086309,69.45504 L193.088686,69.45504 L193.088686,72.4568229 Z M193.088686,67.1642057 L187.111451,67.1642057 L189.744594,54.8674286 L193.088686,54.8674286 L193.088686,67.1642057 Z M204.332206,80.9355429 L196.143131,74.7476571 L202.041371,70.2713143 L204.332206,80.9355429 Z M195.37952,54.8410971 L198.723611,54.8410971 L201.356754,67.1378743 L195.37952,67.1378743 L195.37952,54.8410971 Z M195.37952,69.4287086 L199.381897,69.4287086 L195.37952,72.4304914 L195.37952,69.4287086 Z M195.37952,77.0648229 L202.673326,82.5680914 L195.37952,82.5680914 L195.37952,77.0648229 Z M195.37952,84.8589257 L203.068297,84.8589257 L195.37952,91.6787657 L195.37952,84.8589257 Z M209.809143,106.529691 L195.958811,94.2329143 L205.385463,85.85952 L209.809143,106.529691 Z" id="Shape" fill="#334358" fill-rule="nonzero"></path>
            <rect id="Rectangle" fill="#FFED8F" fill-rule="nonzero" x="159.06848" y="109.320823" width="70.3575771" height="15.5092114"></rect>
            <rect id="Rectangle" fill="#54829C" fill-rule="nonzero" x="238.773714" y="140.0496" width="104.246126" height="25.43616"></rect>
            <polygon id="Path" fill="#CE0E2D" fill-rule="nonzero" points="246.225509 44.4928457 235.7456 44.4928457 235.613943 48.8638629 246.383497 48.8638629"></polygon>
            <g id="Group" transform="translate(233.112457, 48.811200)" fill-rule="nonzero">
                <polygon id="Path" fill="#FFFFFF" points="0.18432 68.6197029 15.5882057 68.6197029 14.8772571 47.7915429 0.895268571 47.7915429"></polygon>
                <polygon id="Path" fill="#FFFFFF" points="13.27104 0.0526628571 2.50148571 0.0526628571 1.63254857 25.4098286 14.1136457 25.4098286"></polygon>
                <polygon id="Path" fill="#CE0E2D" points="1.63254857 25.4098286 0.895268571 47.7915429 14.8772571 47.7915429 14.1136457 25.4098286"></polygon>
            </g>
            <polygon id="Path" fill="#CE0E2D" fill-rule="nonzero" points="265.473783 53.0242286 256.231451 53.0242286 256.099794 56.8949486 265.60544 56.8949486"></polygon>
            <g id="Group" transform="translate(253.914286, 56.710629)" fill-rule="nonzero">
                <polygon id="Path" fill="#FFFFFF" points="0.131657143 60.7202743 13.7186743 60.7202743 13.1130514 42.3409371 0.763611429 42.3409371"></polygon>
                <polygon id="Path" fill="#FFFFFF" points="11.6911543 0.18432 2.18550857 0.18432 1.42189714 22.5660343 12.4547657 22.5660343"></polygon>
                <polygon id="Path" fill="#CE0E2D" points="1.42189714 22.5660343 0.763611429 42.3409371 13.1130514 42.3409371 12.4547657 22.5660343"></polygon>
            </g>
            <path d="M278.50784,83.5950171 C278.50784,84.20064 278.007543,84.7009371 277.40192,84.7009371 L277.40192,84.7009371 C276.796297,84.7009371 276.296,84.20064 276.296,83.5950171 L276.296,77.8284343 C276.296,77.2228114 276.796297,76.7225143 277.40192,76.7225143 L277.40192,76.7225143 C278.007543,76.7225143 278.50784,77.2228114 278.50784,77.8284343 L278.50784,83.5950171 Z" id="Path" fill="#CE0E2D" fill-rule="nonzero"></path>
            <path d="M283.247497,83.5950171 C283.247497,84.20064 282.7472,84.7009371 282.141577,84.7009371 L282.141577,84.7009371 C281.535954,84.7009371 281.035657,84.20064 281.035657,83.5950171 L281.035657,77.8284343 C281.035657,77.2228114 281.535954,76.7225143 282.141577,76.7225143 L282.141577,76.7225143 C282.7472,76.7225143 283.247497,77.2228114 283.247497,77.8284343 L283.247497,83.5950171 Z" id="Path" fill="#CE0E2D" fill-rule="nonzero"></path>
            <path d="M288.013486,83.5950171 C288.013486,84.20064 287.513189,84.7009371 286.907566,84.7009371 L286.907566,84.7009371 C286.301943,84.7009371 285.801646,84.20064 285.801646,83.5950171 L285.801646,77.8284343 C285.801646,77.2228114 286.301943,76.7225143 286.907566,76.7225143 L286.907566,76.7225143 C287.513189,76.7225143 288.013486,77.2228114 288.013486,77.8284343 L288.013486,83.5950171 Z" id="Path" fill="#CE0E2D" fill-rule="nonzero"></path>
            <g id="Group" transform="translate(272.872914, 79.882286)" fill-rule="nonzero">
                <path d="M0.105325714,25.8574629 C0.105325714,26.8317257 0.895268571,27.6216686 1.86953143,27.6216686 L16.7204571,27.6216686 C17.69472,27.6216686 18.4846629,26.8317257 18.4846629,25.8574629 L18.4846629,24.5408914 L0.131657143,24.5408914 L0.131657143,25.8574629 L0.105325714,25.8574629 Z" id="Path" fill="#FFED8F"></path>
                <rect id="Rectangle" fill="#FFED8F" x="0.105325714" y="15.3512229" width="18.3530057" height="6.26688"></rect>
                <rect id="Rectangle" fill="#D1C06D" x="0.684617143" y="21.5917714" width="17.1680914" height="2.92278857"></rect>
                <rect id="Rectangle" fill="#D1C06D" x="0.684617143" y="3.23876571" width="17.1680914" height="2.92278857"></rect>
                <rect id="Rectangle" fill="#D1C06D" x="0.684617143" y="12.4021029" width="17.1680914" height="2.92278857"></rect>
                <rect id="Rectangle" fill="#FFED8F" x="0.105325714" y="6.16155429" width="18.3530057" height="6.26688"></rect>
                <path d="M18.4583314,1.92219429 C18.4583314,0.947931429 17.6683886,0.157988571 16.6941257,0.157988571 L1.8432,0.157988571 C0.868937143,0.157988571 0.0789942857,0.947931429 0.0789942857,1.92219429 L0.0789942857,3.23876571 L18.432,3.23876571 L18.432,1.92219429 L18.4583314,1.92219429 Z" id="Path" fill="#FFED8F"></path>
            </g>
            <path d="M301.679497,83.5950171 C301.679497,84.20064 301.1792,84.7009371 300.573577,84.7009371 L300.573577,84.7009371 C299.967954,84.7009371 299.467657,84.20064 299.467657,83.5950171 L299.467657,77.8284343 C299.467657,77.2228114 299.967954,76.7225143 300.573577,76.7225143 L300.573577,76.7225143 C301.1792,76.7225143 301.679497,77.2228114 301.679497,77.8284343 L301.679497,83.5950171 Z" id="Path" fill="#FFED8F" fill-rule="nonzero"></path>
            <path d="M306.419154,83.5950171 C306.419154,84.20064 305.918857,84.7009371 305.313234,84.7009371 L305.313234,84.7009371 C304.707611,84.7009371 304.207314,84.20064 304.207314,83.5950171 L304.207314,77.8284343 C304.207314,77.2228114 304.707611,76.7225143 305.313234,76.7225143 L305.313234,76.7225143 C305.918857,76.7225143 306.419154,77.2228114 306.419154,77.8284343 L306.419154,83.5950171 Z" id="Path" fill="#FFED8F" fill-rule="nonzero"></path>
            <path d="M311.158811,83.5950171 C311.158811,84.20064 310.658514,84.7009371 310.052891,84.7009371 L310.052891,84.7009371 C309.447269,84.7009371 308.946971,84.20064 308.946971,83.5950171 L308.946971,77.8284343 C308.946971,77.2228114 309.447269,76.7225143 310.052891,76.7225143 L310.052891,76.7225143 C310.658514,76.7225143 311.158811,77.2228114 311.158811,77.8284343 L311.158811,83.5950171 Z" id="Path" fill="#FFED8F" fill-rule="nonzero"></path>
            <g id="Group" transform="translate(296.044571, 79.882286)" fill-rule="nonzero">
                <path d="M0.0789942857,25.8574629 C0.0789942857,26.8317257 0.868937143,27.6216686 1.8432,27.6216686 L16.6941257,27.6216686 C17.6683886,27.6216686 18.4583314,26.8317257 18.4583314,25.8574629 L18.4583314,24.5408914 L0.105325714,24.5408914 L0.105325714,25.8574629 L0.0789942857,25.8574629 Z" id="Path" fill="#CE0E2D"></path>
                <rect id="Rectangle" fill="#CE0E2D" x="0.0789942857" y="15.3512229" width="18.3530057" height="6.26688"></rect>
                <rect id="Rectangle" fill="#88192B" x="0.579291429" y="21.5917714" width="17.3524114" height="2.92278857"></rect>
                <rect id="Rectangle" fill="#88192B" x="0.579291429" y="3.23876571" width="17.3524114" height="2.92278857"></rect>
                <rect id="Rectangle" fill="#88192B" x="0.579291429" y="12.4021029" width="17.3524114" height="2.92278857"></rect>
                <rect id="Rectangle" fill="#CE0E2D" x="0.0789942857" y="6.16155429" width="18.3530057" height="6.26688"></rect>
                <path d="M18.432,1.92219429 C18.432,0.947931429 17.6420571,0.157988571 16.6677943,0.157988571 L1.8432,0.157988571 C0.868937143,0.157988571 0.0789942857,0.947931429 0.0789942857,1.92219429 L0.0789942857,3.23876571 L18.432,3.23876571 L18.432,1.92219429 Z" id="Path" fill="#CE0E2D"></path>
            </g>
            <polygon id="Path" fill="#334358" fill-rule="nonzero" points="386.70368 117.430903 385.729417 117.430903 385.729417 64.5047314 386.70368 62.9775086"></polygon>
            <path d="M386.229714,135.862903 C385.018469,135.862903 384.017874,134.862309 384.017874,133.651063 C384.017874,132.439817 385.018469,131.439223 386.229714,131.439223 C387.44096,131.439223 388.441554,132.439817 388.441554,133.651063 C388.441554,134.862309 387.44096,135.862903 386.229714,135.862903 Z M386.229714,132.413486 C385.545097,132.413486 384.992137,132.966446 384.992137,133.651063 C384.992137,134.33568 385.545097,134.88864 386.229714,134.88864 C386.914331,134.88864 387.467291,134.33568 387.467291,133.651063 C387.44096,132.966446 386.888,132.413486 386.229714,132.413486 Z" id="Shape" fill="#334358" fill-rule="nonzero"></path>
            <rect id="Rectangle" fill="#334358" fill-rule="nonzero" x="385.729417" y="126.40992" width="1" height="5.5296"></rect>
            <rect id="Rectangle" fill="#4D7388" fill-rule="nonzero" x="229.426057" y="117.062263" width="98.8745143" height="22.9873371"></rect>
            <path d="M386.730011,62.45088 C386.730011,64.9523657 384.702491,66.9798857 382.201006,66.9798857 C379.69952,66.9798857 377.672,64.9523657 377.672,62.45088 C377.672,59.9493943 379.69952,57.9218743 382.201006,57.9218743 C384.702491,57.9218743 386.730011,59.9493943 386.730011,62.45088 Z" id="Path" fill="#CE0E2D" fill-rule="nonzero"></path>
            <path d="M384.254857,62.45088 C384.254857,63.5831314 383.333257,64.5047314 382.201006,64.5047314 C381.068754,64.5047314 380.147154,63.5831314 380.147154,62.45088 C380.147154,61.3186286 381.068754,60.3970286 382.201006,60.3970286 C383.333257,60.3970286 384.254857,61.3186286 384.254857,62.45088 Z" id="Path" fill="#88192B" fill-rule="nonzero"></path>
            <circle id="Oval" fill="#C2B575" fill-rule="nonzero" cx="169.153417" cy="117.430903" r="4.02870857"></circle>
            <path d="M185.742217,117.430903 C185.742217,119.669074 183.925349,121.459611 181.713509,121.459611 C179.475337,121.459611 177.6848,119.642743 177.6848,117.430903 C177.6848,115.219063 179.501669,113.402194 181.713509,113.402194 C183.925349,113.402194 185.742217,115.192731 185.742217,117.430903 Z" id="Path" fill="#C2B575" fill-rule="nonzero"></path>
            <circle id="Oval" fill="#C2B575" fill-rule="nonzero" cx="194.247269" cy="117.430903" r="4.02870857"></circle>
            <path d="M210.809737,117.430903 C210.809737,119.669074 208.992869,121.459611 206.781029,121.459611 C204.542857,121.459611 202.75232,119.642743 202.75232,117.430903 C202.75232,115.219063 204.569189,113.402194 206.781029,113.402194 C208.992869,113.402194 210.809737,115.192731 210.809737,117.430903 Z" id="Path" fill="#C2B575" fill-rule="nonzero"></path>
            <circle id="Oval" fill="#C2B575" fill-rule="nonzero" cx="219.314789" cy="117.430903" r="4.02870857"></circle>
            <rect id="Rectangle" fill="#354D5B" fill-rule="nonzero" x="238.773714" y="125.514651" width="22.5660343" height="6.05622857"></rect>
            <rect id="Rectangle" fill="#354D5B" fill-rule="nonzero" x="268.73888" y="125.514651" width="22.5660343" height="6.05622857"></rect>
            <rect id="Rectangle" fill="#354D5B" fill-rule="nonzero" x="298.704046" y="125.514651" width="22.5660343" height="6.05622857"></rect>
            <rect id="Rectangle" fill="#354D5B" fill-rule="nonzero" x="247.305097" y="147.738377" width="10.0586057" height="10.0586057"></rect>
            <rect id="Rectangle" fill="#354D5B" fill-rule="nonzero" x="265.42112" y="147.738377" width="10.0586057" height="10.0586057"></rect>
            <rect id="Rectangle" fill="#354D5B" fill-rule="nonzero" x="283.563474" y="147.738377" width="10.0586057" height="10.0586057"></rect>
            <rect id="Rectangle" fill="#354D5B" fill-rule="nonzero" x="301.679497" y="147.738377" width="10.0586057" height="10.0586057"></rect>
            <rect id="Rectangle" fill="#354D5B" fill-rule="nonzero" x="319.821851" y="147.738377" width="10.0586057" height="10.0586057"></rect>
            <path d="M329.854126,265.57152 L157.067291,265.57152 C154.223497,265.57152 151.906331,267.888686 151.906331,270.73248 C151.906331,273.576274 154.223497,275.89344 157.067291,275.89344 L201.620069,275.89344 C204.937829,275.89344 207.623634,278.579246 207.623634,281.897006 C207.623634,285.214766 204.937829,287.900571 201.620069,287.900571 L191.087497,287.900571 C188.243703,287.900571 185.926537,290.217737 185.926537,293.061531 C185.926537,295.905326 188.243703,298.222491 191.087497,298.222491 L282.37856,298.222491 C285.222354,298.222491 287.53952,295.905326 287.53952,293.061531 C287.53952,290.217737 285.222354,287.900571 282.37856,287.900571 L261.471406,287.900571 C258.153646,287.900571 255.46784,285.188434 255.46784,281.897006 C255.46784,278.579246 258.153646,275.89344 261.471406,275.89344 L329.854126,275.89344 C332.69792,275.89344 335.015086,273.576274 335.015086,270.73248 C335.015086,267.888686 332.69792,265.57152 329.854126,265.57152 Z" id="Path" fill="#354D5B" fill-rule="nonzero"></path>
            <path d="M216.128686,245.322651 C216.128686,248.298103 213.706194,250.720594 210.730743,250.720594 L205.14848,250.720594 C202.173029,250.720594 199.750537,248.298103 199.750537,245.322651 L199.750537,245.322651 C199.750537,242.3472 202.173029,239.924709 205.14848,239.924709 L210.730743,239.924709 C213.732526,239.924709 216.128686,242.3472 216.128686,245.322651 L216.128686,245.322651 Z" id="Path" fill="#354D5B" fill-rule="nonzero"></path>
            <path d="M194.64224,25.3498971 C194.64224,25.3498971 193.799634,31.7221029 190.03424,36.7250743 C186.268846,41.7280457 189.507611,45.7040914 194.64224,47.4682971 C194.64224,47.4682971 206.860023,44.2295314 194.64224,25.3498971 Z" id="Path" fill="#FFD58F" fill-rule="nonzero"></path>
            <path d="M195.1952,32.5120457 C195.1952,32.5120457 197.433371,34.24992 193.72064,38.2522971 C189.033646,43.3342629 194.64224,47.4682971 194.64224,47.4682971 C202.489006,39.2528914 195.1952,32.5120457 195.1952,32.5120457 Z" id="Path" fill="#B99272" fill-rule="nonzero"></path>
            <g id="Group" transform="translate(127.523429, 165.459429)" fill-rule="nonzero">
                <path d="M220.051749,0 L7.21481143,0 C3.37042286,0 0.236982857,3.10710857 0.18432,6.95149714 L226.976914,5.79291429 C226.371291,2.50148571 223.501166,0 220.051749,0 Z" id="Path" fill="#74838D"></path>
                <path d="M0.18432,6.95149714 C0.18432,6.97782857 0.18432,7.00416 0.18432,7.03049143 C0.18432,10.9012114 3.34409143,14.0609829 7.21481143,14.0609829 L220.051749,14.0609829 C223.922469,14.0609829 227.08224,10.9012114 227.08224,7.03049143 C227.08224,6.60918857 227.029577,6.18788571 226.976914,5.76658286 L0.18432,6.95149714 Z" id="Path" fill="#4F595F"></path>
            </g>
            <polygon id="Path" fill="#1D282E" fill-rule="nonzero" opacity="0.2" points="238.773714 140.0496 238.773714 165.459429 243.1184 165.459429 240.959223 140.0496"></polygon>
            <polygon id="Path" fill="#1D282E" fill-rule="nonzero" opacity="0.2" points="229.426057 117.062263 229.426057 140.0496 243.1184 140.0496 240.959223 117.062263"></polygon>
            <g id="Group" transform="translate(149.641829, 124.645714)" fill-rule="nonzero">
                <polygon id="Path" fill="#5990D5" points="0.0526628571 38.4175543 0.0526628571 40.8137143 89.1318857 40.8137143 89.1318857 35.9160686"></polygon>
                <polygon id="Path" fill="#74AEF6" points="89.1318857 0.18432 0.0526628571 0.18432 0.0526628571 38.4175543 89.1318857 35.9160686"></polygon>
            </g>
            <rect id="Rectangle" fill="#2569BE" fill-rule="nonzero" x="159.595109" y="135.599589" width="17.9580343" height="17.9580343"></rect>
            <rect id="Rectangle" fill="#2569BE" fill-rule="nonzero" x="184.399314" y="135.599589" width="17.9580343" height="17.9580343"></rect>
            <rect id="Rectangle" fill="#2569BE" fill-rule="nonzero" x="209.177189" y="135.599589" width="17.9580343" height="17.9580343"></rect>
            <g id="Group" transform="translate(381.095086, 117.009600)" fill-rule="nonzero">
                <polygon id="Path" fill="#D6C981" points="1.39556571 7.18848 8.50505143 9.32132571 8.90002286 7.03049143 0.974262857 4.68699429"></polygon>
                <polygon id="Path" fill="#FFED8F" points="1.76420571 9.40032 8.47872 9.40032 8.50505143 9.32132571 1.39556571 7.18848"></polygon>
                <polygon id="Path" fill="#FFED8F" points="10.0586057 0.0526628571 1.52722286 0.0526628571 9.66363429 2.47515429"></polygon>
                <polygon id="Path" fill="#FFED8F" points="0.526628571 2.15917714 0.974262857 4.68699429 8.90002286 7.03049143 9.26866286 4.76598857"></polygon>
                <polygon id="Path" fill="#D6C981" points="9.66363429 2.47515429 1.52722286 0.0526628571 0.18432 0.0526628571 0.526628571 2.15917714 9.26866286 4.76598857"></polygon>
            </g>
        </g>
    </g>
</svg>
