<?xml version="1.0" encoding="UTF-8"?>
<svg width="67px" height="25px" viewBox="0 0 67 25" version="1.1" xmlns="http://www.w3.org/2000/svg" xmlns:xlink="http://www.w3.org/1999/xlink">
    <title>Logo / Small@1x</title>
    <defs>
        <path d="M2.76087398,4.76629402 C4.05737165,4.76629402 5.08927795,3.73438771 5.08927795,2.43789005 C5.08927795,1.14139238 4.05737165,0.10948608 2.76087398,0.10948608 C1.46437632,0.10948608 0.432470016,1.14139238 0.432470016,2.43789005 C0.432470016,3.73438771 1.46437632,4.76629402 2.76087398,4.76629402 Z" id="path-1"></path>
    </defs>
    <g id="Symbols" stroke="none" stroke-width="1" fill="none" fill-rule="evenodd">
        <g id="Group">
            <path d="M4.55097139,19.160064 L4.55097139,13.1802993 L6.87937536,13.1802993 L9.84279859,19.160064 L15.0552484,19.160064 L11.4568059,12.6775757 C13.0972723,12.0954747 14.975871,10.4550083 14.975871,7.38574848 C14.975871,4.10481562 12.7533036,1.51182029 8.83735142,1.51182029 L-1.03726052e-13,1.51182029 L-1.03726052e-13,19.160064 L4.55097139,19.160064 Z" id="Path" fill="#00263E" fill-rule="nonzero"></path>
            <path d="M8.14941389,9.31726541 L4.55097139,9.31726541 L4.55097139,5.34839501 L8.14941389,5.34839501 C9.34007501,5.34839501 10.3455222,6.11570995 10.3455222,7.33283021 C10.3455222,8.54995046 9.34007501,9.31726541 8.14941389,9.31726541 Z" id="Path" fill="#FFFFFF" fill-rule="nonzero"></path>
            <g id="Rectangle-+-Path-Mask" transform="translate(16.660132, 0.000000)">
                <mask id="mask-2" fill="white">
                    <use xlink:href="#path-1"></use>
                </mask>
                <use id="Mask" fill="#00263E" fill-rule="nonzero" xlink:href="#path-1"></use>
                <rect id="Rectangle" fill="#CE0E2D" mask="url(#mask-2)" x="-0.456192" y="-0.456192" width="5.80458701" height="5.80458701"></rect>
                <path d="M2.76087398,4.76629402 C4.05737165,4.76629402 5.08927795,3.73438771 5.08927795,2.43789005 C5.08927795,1.14139238 4.05737165,0.10948608 2.76087398,0.10948608 C1.46437632,0.10948608 0.432470016,1.14139238 0.432470016,2.43789005 C0.432470016,3.73438771 1.46437632,4.76629402 2.76087398,4.76629402 Z" id="Path" mask="url(#mask-2)"></path>
            </g>
            <polygon id="Path" fill="#00263E" fill-rule="nonzero" points="21.4583593 19.160064 21.4583593 6.38030131 17.3836524 6.38030131 17.3836524 19.160064"></polygon>
            <path d="M29.7400689,24.3460547 C32.9151652,24.3460547 37.0427904,23.2347709 37.0427904,18.0223212 L37.0427904,6.38030131 L32.9945426,6.38030131 L32.9945426,7.88847206 C31.9626363,6.61843354 30.6396795,6.06279168 29.2108861,6.06279168 C26.0093307,6.06279168 23.5750902,8.2853591 23.5750902,12.4923617 C23.5750902,16.8052009 26.0887081,18.9483909 29.2108861,18.9483909 C30.6661386,18.9483909 31.9361772,18.3398308 32.9945426,17.0962514 L32.9945426,18.0752394 C32.9945426,20.4565617 31.0894848,21.0122035 29.7400689,21.0122035 C28.2583572,21.0122035 26.8295639,20.5888573 25.8505759,19.5304919 L24.0778138,22.4409969 C25.7182802,23.7904128 27.5439606,24.3460547 29.7400689,24.3460547 Z" id="Path" fill="#00263E" fill-rule="nonzero"></path>
            <path d="M30.5603021,15.3499484 C28.9462948,15.3499484 27.7556337,14.3709604 27.7556337,12.4923617 C27.7556337,10.6402222 28.9462948,9.66123418 30.5603021,9.66123418 C31.4069944,9.66123418 32.491819,10.1110395 32.9945426,10.798977 L32.9945426,14.2122056 C32.491819,14.9001431 31.4069944,15.3499484 30.5603021,15.3499484 Z" id="Path" fill="#FFFFFF" fill-rule="nonzero"></path>
            <path d="M46.1711923,19.4775736 C48.1291684,19.4775736 50.2458993,18.9219318 51.5159378,17.7841889 L49.796094,15.2441119 C49.0816973,15.8791311 47.8116588,16.3289364 46.6739159,16.3289364 C44.7688581,16.3289364 43.6575744,15.2441119 43.4194422,14.0534508 L52.521385,14.0534508 L52.521385,13.1802993 C52.521385,8.84100096 49.7696348,6.06279168 45.9859784,6.06279168 C41.9906488,6.06279168 39.1859804,9.05267405 39.1859804,12.7569531 C39.1859804,16.9110374 42.2287811,19.4775736 46.1711923,19.4775736 Z" id="Path" fill="#00263E" fill-rule="nonzero"></path>
            <path d="M48.631892,11.4075372 L43.3665239,11.4075372 C43.5252787,10.4814674 44.2132163,9.21142886 45.9859784,9.21142886 C47.864577,9.21142886 48.5260554,10.5079265 48.631892,11.4075372 Z" id="Path" fill="#FFFFFF" fill-rule="nonzero"></path>
            <polygon id="Path" fill="#00263E" fill-rule="nonzero" points="56.622551 19.160064 59.1097098 15.2970301 61.5704095 19.160064 66.0420035 19.160064 61.676246 12.5981983 65.750953 6.38030131 61.279359 6.38030131 59.1097098 9.84644813 56.9136015 6.38030131 52.4420076 6.38030131 56.5431736 12.5981983 52.1774162 19.160064"></polygon>
        </g>
    </g>
</svg>
