<?xml version="1.0" encoding="UTF-8"?>
<svg width="24px" height="24px" viewBox="0 0 24 24" version="1.1" xmlns="http://www.w3.org/2000/svg" xmlns:xlink="http://www.w3.org/1999/xlink">
    <title>Icon / Search@1.5x</title>
    <defs>
        <path d="M7.54541667,0.333333333 L7.78835256,0.337361818 C11.6588971,0.465688433 14.7572516,3.64366553 14.7575,7.54541667 C14.7575,9.29706206 14.133036,10.9028561 13.0945858,12.1523207 L17.4714045,16.5285955 C17.731754,16.788945 17.731754,17.211055 17.4714045,17.4714045 C17.2370899,17.7057191 16.8717494,17.7291506 16.6112296,17.5416989 L16.5285955,17.4714045 L12.1523207,13.0945858 C10.9028561,14.133036 9.29706206,14.7575 7.54541667,14.7575 C3.56229303,14.7575 0.333333333,11.5285403 0.333333333,7.54541667 C0.333333333,3.56229303 3.56229303,0.333333333 7.54541667,0.333333333 L7.54541667,0.333333333 Z M7.54537423,1.66666667 L7.32502403,1.67072151 C4.18039556,1.78662083 1.66666667,4.37246233 1.66666667,7.54541667 C1.66666667,10.7921606 4.29867269,13.4241667 7.54541667,13.4241667 C10.7921606,13.4241667 13.4241667,10.7921606 13.4241667,7.5454591 C13.42396,4.2987773 10.792056,1.66687332 7.54537423,1.66666667 L7.54537423,1.66666667 Z" id="path-1"></path>
    </defs>
    <g id="Symbols" stroke="none" stroke-width="1" fill="none" fill-rule="evenodd">
        <g id="Search" transform="translate(3.000000, 3.000000)">
            <mask id="mask-2" fill="white">
                <use xlink:href="#path-1"></use>
            </mask>
            <use id="Mask" fill="#011627" fill-rule="nonzero" xlink:href="#path-1"></use>
            <g id="Group" mask="url(#mask-2)">
                <g transform="translate(-3.000000, -3.000000)" id="Color-/-Medium-Grey">
                    <rect id="Rectangle" fill="#637F8E" x="0" y="0" width="24" height="24"></rect>
                </g>
            </g>
        </g>
    </g>
</svg>
