<?xml version="1.0" encoding="UTF-8"?>
<svg width="44px" height="78px" viewBox="0 0 44 78" version="1.1" xmlns="http://www.w3.org/2000/svg" xmlns:xlink="http://www.w3.org/1999/xlink">
    <title>Empty State Icon / Tower@1.5x</title>
    <g id="Symbols" stroke="none" stroke-width="1" fill="none" fill-rule="evenodd">
        <g id="Group-4">
            <path d="M36.7174918,52.2296686 C37.3494461,52.2296686 37.8497432,51.7293714 37.8497432,51.0974171 C37.8497432,50.4654629 37.3494461,49.9651657 36.7174918,49.9651657 L34.2423375,49.9651657 L31.4248747,36.8521143 L33.3207375,36.8521143 C33.9526918,36.8521143 34.452989,36.3518171 34.452989,35.6935314 C34.452989,35.0615771 33.9526918,34.56128 33.3207375,34.56128 L30.950909,34.56128 L28.3177661,22.2645029 L29.5026804,22.2645029 C30.1346347,22.2645029 30.6349318,21.7378743 30.6349318,21.10592 C30.6349318,20.55296 30.2399604,20.1316571 29.7396632,20 L13.2035261,20 C12.703229,20.1316571 12.3082575,20.55296 12.3082575,21.10592 C12.3082575,21.7378743 12.8085547,22.2645029 13.4668404,22.2645029 L14.6517547,22.2645029 L12.0186118,34.56128 L9.64878324,34.56128 C9.01682896,34.56128 8.51653181,35.0615771 8.51653181,35.6935314 C8.51653181,36.3254857 9.01682896,36.8521143 9.64878324,36.8521143 L11.5446461,36.8521143 L8.72718324,49.9651657 L5.19877181,49.9651657 C4.56681753,49.9651657 4.04018896,50.4654629 4.04018896,51.0974171 C4.04018896,51.7293714 4.56681753,52.2296686 5.19877181,52.2296686 L8.20055467,52.2296686 L2.96060038,76.6915657 L6.1993661,76.6915657 L20.3130118,64.1578057 L20.3130118,76.6915657 L22.6038461,76.6915657 L22.6038461,64.1578057 L36.7174918,76.6915657 L39.9562575,76.6915657 L34.7163032,52.2296686 L36.7174918,52.2296686 Z M13.6511604,37.6683886 L19.5494004,42.1447314 L11.3866575,48.3062857 L13.6511604,37.6683886 Z M5.88338896,73.9004343 L10.307069,53.2565943 L19.7337204,61.6299886 L5.88338896,73.9004343 Z M20.3130118,59.0495086 L12.6242347,52.2296686 L20.3130118,52.2296686 L20.3130118,59.0495086 Z M20.3130118,49.9388343 L13.0192061,49.9388343 L20.3130118,44.4355657 L20.3130118,49.9388343 Z M20.3130118,39.8275657 L16.3106347,36.8257829 L20.3130118,36.8257829 L20.3130118,39.8275657 Z M20.3130118,34.5349486 L14.3357775,34.5349486 L16.9689204,22.2381714 L20.3130118,22.2381714 L20.3130118,34.5349486 Z M31.5565318,48.3062857 L23.3674575,42.1184 L29.2656975,37.6420571 L31.5565318,48.3062857 Z M22.6038461,22.21184 L25.9479375,22.21184 L28.5810804,34.5086171 L22.6038461,34.5086171 L22.6038461,22.21184 Z M22.6038461,36.7994514 L26.6062232,36.7994514 L22.6038461,39.8012343 L22.6038461,36.7994514 Z M22.6038461,44.4355657 L29.8976518,49.9388343 L22.6038461,49.9388343 L22.6038461,44.4355657 Z M22.6038461,52.2296686 L30.2926232,52.2296686 L22.6038461,59.0495086 L22.6038461,52.2296686 Z M37.033469,73.9004343 L23.1831375,61.6036571 L32.609789,53.2302629 L37.033469,73.9004343 Z" id="Shape" fill="#98A8B1" fill-rule="nonzero"></path>
            <path d="M21.5879638,0.845782857 C21.5879638,0.845782857 23.8261352,2.58365714 20.1134038,6.58603429 C15.4264095,11.668 21.0350038,15.8020343 21.0350038,15.8020343 C28.8817695,7.58662857 21.5879638,0.845782857 21.5879638,0.845782857 Z" id="Path" fill="#ACB9C0" fill-rule="nonzero"></path>
            <line x1="1.22247048e-12" y1="76.6915657" x2="43.0118561" y2="76.6915657" id="Path-2" stroke="#98A8B1" stroke-width="2.25" stroke-linecap="round"></line>
        </g>
    </g>
</svg>
